<mxfile host="app.diagrams.net" modified="2022-08-08T10:11:00.859Z" agent="5.0 (X11; Linux x86_64) AppleWebKit/537.36 (KHTML, like Gecko) Chrome/101.0.0.0 Safari/537.36" etag="xjcTJELfDFsitpHvjmCN" version="20.1.3" type="github">
  <diagram id="33MGLhzP_6y9Mjqglcjp" name="Strona-1">
    <mxGraphModel dx="1586" dy="909" grid="1" gridSize="10" guides="1" tooltips="1" connect="1" arrows="1" fold="1" page="1" pageScale="1" pageWidth="1169" pageHeight="827" math="0" shadow="0">
      <root>
        <mxCell id="0" />
        <mxCell id="1" parent="0" />
        <mxCell id="Tq09RANnmWX7quzsQ5gN-1" value="&lt;b style=&quot;font-family: Helvetica; font-size: 20px; font-style: normal; font-variant-ligatures: normal; font-variant-caps: normal; letter-spacing: normal; orphans: 2; text-align: center; text-indent: 0px; text-transform: none; widows: 2; word-spacing: 0px; -webkit-text-stroke-width: 0px; background-color: rgb(248, 249, 250); text-decoration-thickness: initial; text-decoration-style: initial; text-decoration-color: initial;&quot;&gt;&lt;font color=&quot;#ff3333&quot;&gt;PC&lt;/font&gt;&lt;/b&gt;" style="rounded=1;whiteSpace=wrap;html=1;align=center;strokeWidth=1;sketch=0;shadow=0;gradientColor=none;arcSize=8;labelPosition=center;verticalLabelPosition=middle;verticalAlign=top;" vertex="1" parent="1">
          <mxGeometry x="560" y="270" width="440" height="370" as="geometry" />
        </mxCell>
        <mxCell id="Tq09RANnmWX7quzsQ5gN-3" value="&lt;b&gt;&lt;font style=&quot;font-size: 20px;&quot;&gt;&amp;nbsp; &amp;nbsp; &amp;nbsp; &amp;nbsp; &amp;nbsp; &amp;nbsp; &amp;nbsp; &amp;nbsp; &amp;nbsp; &amp;nbsp; &amp;nbsp; &amp;nbsp; &amp;nbsp; &amp;nbsp; &amp;nbsp; Docker PC&lt;/font&gt;&lt;/b&gt;" style="rounded=1;whiteSpace=wrap;html=1;arcSize=8;verticalAlign=top;" vertex="1" parent="1">
          <mxGeometry x="110" y="300" width="860" height="310" as="geometry" />
        </mxCell>
        <mxCell id="Tq09RANnmWX7quzsQ5gN-91" value="&lt;font style=&quot;font-size: 14px;&quot;&gt;compose.main.yaml&lt;/font&gt;" style="rounded=1;whiteSpace=wrap;html=1;shadow=0;sketch=0;fontSize=12;strokeWidth=1;gradientColor=none;arcSize=8;verticalAlign=top;" vertex="1" parent="1">
          <mxGeometry x="120" y="310" width="430" height="290" as="geometry" />
        </mxCell>
        <mxCell id="Tq09RANnmWX7quzsQ5gN-2" value="&lt;b style=&quot;font-size: 20px;&quot;&gt;&lt;font color=&quot;#ff3333&quot;&gt;ROSbot&lt;/font&gt;&lt;/b&gt;" style="rounded=1;whiteSpace=wrap;html=1;imageHeight=24;arcSize=8;labelPosition=center;verticalLabelPosition=middle;align=center;verticalAlign=top;" vertex="1" parent="1">
          <mxGeometry x="560" y="670" width="440" height="350" as="geometry" />
        </mxCell>
        <mxCell id="Tq09RANnmWX7quzsQ5gN-133" style="edgeStyle=orthogonalEdgeStyle;shape=link;rounded=0;orthogonalLoop=1;jettySize=auto;html=1;dashed=1;dashPattern=1 1;fontSize=16;startArrow=classic;startFill=1;endArrow=none;endFill=0;targetPerimeterSpacing=0;strokeColor=#b85450;strokeWidth=2;fillColor=#f8cecc;" edge="1" parent="1" source="Tq09RANnmWX7quzsQ5gN-12" target="Tq09RANnmWX7quzsQ5gN-129">
          <mxGeometry relative="1" as="geometry">
            <Array as="points">
              <mxPoint x="805" y="650" />
              <mxPoint x="510" y="650" />
            </Array>
          </mxGeometry>
        </mxCell>
        <mxCell id="Tq09RANnmWX7quzsQ5gN-12" value="&lt;font style=&quot;font-size: 12px;&quot;&gt;compose.rviz.lan.yaml&lt;/font&gt;" style="rounded=1;whiteSpace=wrap;html=1;shadow=0;sketch=0;fontSize=20;strokeWidth=1;gradientColor=none;" vertex="1" parent="1">
          <mxGeometry x="735" y="537.5" width="140" height="30" as="geometry" />
        </mxCell>
        <mxCell id="Tq09RANnmWX7quzsQ5gN-13" value="compose.rviz.mapping.yaml&lt;br&gt;or&lt;br&gt;compose.rviz.localization.yaml" style="rounded=1;whiteSpace=wrap;html=1;shadow=0;sketch=0;fontSize=12;strokeWidth=1;gradientColor=none;imageVerticalAlign=top;labelPosition=center;verticalLabelPosition=middle;align=center;verticalAlign=bottom;" vertex="1" parent="1">
          <mxGeometry x="660" y="380" width="290" height="120" as="geometry" />
        </mxCell>
        <mxCell id="Tq09RANnmWX7quzsQ5gN-16" value="/rviz" style="ellipse;whiteSpace=wrap;html=1;rounded=1;shadow=0;sketch=0;fontSize=20;strokeWidth=1;fillColor=#fff2cc;strokeColor=#d6b656;" vertex="1" parent="1">
          <mxGeometry x="680" y="400" width="250" height="50" as="geometry" />
        </mxCell>
        <mxCell id="Tq09RANnmWX7quzsQ5gN-17" value="&lt;font style=&quot;font-size: 12px;&quot;&gt;/goal_task_space_path&lt;/font&gt;" style="rounded=1;whiteSpace=wrap;html=1;shadow=0;sketch=0;fontSize=20;strokeWidth=1;fillColor=#f5f5f5;fontColor=#333333;strokeColor=#666666;" vertex="1" parent="1">
          <mxGeometry x="250" y="80" width="140" height="30" as="geometry" />
        </mxCell>
        <mxCell id="Tq09RANnmWX7quzsQ5gN-18" value="&lt;font style=&quot;font-size: 12px;&quot;&gt;ROS2 Service&lt;br&gt;&lt;b&gt;SetKinematicsPose&lt;/b&gt;&lt;/font&gt;" style="text;html=1;align=center;verticalAlign=middle;resizable=0;points=[];autosize=1;strokeColor=none;fillColor=none;fontSize=15;" vertex="1" parent="1">
          <mxGeometry x="250" y="30" width="130" height="50" as="geometry" />
        </mxCell>
        <mxCell id="Tq09RANnmWX7quzsQ5gN-21" value="&lt;font style=&quot;font-size: 10px;&quot;&gt;server&lt;/font&gt;" style="text;html=1;align=center;verticalAlign=middle;resizable=0;points=[];autosize=1;strokeColor=none;fillColor=none;fontSize=15;" vertex="1" parent="1">
          <mxGeometry x="380" y="85" width="50" height="30" as="geometry" />
        </mxCell>
        <mxCell id="Tq09RANnmWX7quzsQ5gN-22" value="&lt;font style=&quot;font-size: 10px;&quot;&gt;client&lt;/font&gt;" style="text;html=1;align=center;verticalAlign=middle;resizable=0;points=[];autosize=1;strokeColor=none;fillColor=none;fontSize=15;" vertex="1" parent="1">
          <mxGeometry x="210" y="85" width="50" height="30" as="geometry" />
        </mxCell>
        <mxCell id="Tq09RANnmWX7quzsQ5gN-36" style="edgeStyle=orthogonalEdgeStyle;rounded=0;orthogonalLoop=1;jettySize=auto;html=1;exitX=1;exitY=0.5;exitDx=0;exitDy=0;fontSize=15;endArrow=classic;endFill=1;fillColor=#dae8fc;strokeColor=#6c8ebf;dashed=1;strokeWidth=2;" edge="1" parent="1" source="Tq09RANnmWX7quzsQ5gN-38" target="Tq09RANnmWX7quzsQ5gN-16">
          <mxGeometry relative="1" as="geometry">
            <mxPoint x="885" y="80" as="targetPoint" />
            <Array as="points">
              <mxPoint x="750" y="80" />
            </Array>
          </mxGeometry>
        </mxCell>
        <mxCell id="Tq09RANnmWX7quzsQ5gN-38" value="&lt;font style=&quot;font-size: 12px;&quot;&gt;/output/color&lt;/font&gt;" style="rounded=1;whiteSpace=wrap;html=1;shadow=0;sketch=0;fontSize=20;strokeWidth=1;fillColor=#f5f5f5;fontColor=#333333;strokeColor=#666666;" vertex="1" parent="1">
          <mxGeometry x="570" y="70" width="120" height="20" as="geometry" />
        </mxCell>
        <mxCell id="Tq09RANnmWX7quzsQ5gN-39" value="&lt;font style=&quot;font-size: 12px;&quot;&gt;ROS2 Topic&lt;br&gt;&lt;b&gt;Image&lt;/b&gt;&lt;/font&gt;" style="text;html=1;align=center;verticalAlign=middle;resizable=0;points=[];autosize=1;strokeColor=none;fillColor=none;fontSize=15;" vertex="1" parent="1">
          <mxGeometry x="585" y="20" width="90" height="50" as="geometry" />
        </mxCell>
        <mxCell id="Tq09RANnmWX7quzsQ5gN-42" style="edgeStyle=orthogonalEdgeStyle;rounded=0;orthogonalLoop=1;jettySize=auto;html=1;exitX=1;exitY=0.5;exitDx=0;exitDy=0;fontSize=15;endArrow=classic;endFill=1;dashed=1;fillColor=#dae8fc;strokeColor=#6c8ebf;strokeWidth=2;" edge="1" parent="1" source="Tq09RANnmWX7quzsQ5gN-44" target="Tq09RANnmWX7quzsQ5gN-16">
          <mxGeometry relative="1" as="geometry">
            <mxPoint x="885" y="150" as="targetPoint" />
            <Array as="points">
              <mxPoint x="730" y="150" />
            </Array>
          </mxGeometry>
        </mxCell>
        <mxCell id="Tq09RANnmWX7quzsQ5gN-44" value="&lt;font style=&quot;font-size: 12px;&quot;&gt;/output/black&lt;/font&gt;" style="rounded=1;whiteSpace=wrap;html=1;shadow=0;sketch=0;fontSize=20;strokeWidth=1;fillColor=#f5f5f5;fontColor=#333333;strokeColor=#666666;" vertex="1" parent="1">
          <mxGeometry x="570" y="140" width="120" height="20" as="geometry" />
        </mxCell>
        <mxCell id="Tq09RANnmWX7quzsQ5gN-45" value="&lt;span style=&quot;font-size: 12px;&quot;&gt;ROS2 Topic&lt;/span&gt;&lt;br style=&quot;font-size: 12px;&quot;&gt;&lt;b style=&quot;font-size: 12px;&quot;&gt;Image&lt;/b&gt;" style="text;html=1;align=center;verticalAlign=middle;resizable=0;points=[];autosize=1;strokeColor=none;fillColor=none;fontSize=15;" vertex="1" parent="1">
          <mxGeometry x="585" y="90" width="90" height="50" as="geometry" />
        </mxCell>
        <mxCell id="Tq09RANnmWX7quzsQ5gN-48" style="edgeStyle=orthogonalEdgeStyle;rounded=0;orthogonalLoop=1;jettySize=auto;html=1;exitX=1;exitY=0.5;exitDx=0;exitDy=0;fontSize=15;endArrow=classic;endFill=1;dashed=1;fillColor=#dae8fc;strokeColor=#6c8ebf;strokeWidth=2;" edge="1" parent="1" source="Tq09RANnmWX7quzsQ5gN-50" target="Tq09RANnmWX7quzsQ5gN-16">
          <mxGeometry relative="1" as="geometry">
            <mxPoint x="885" y="230" as="targetPoint" />
            <Array as="points">
              <mxPoint x="710" y="230" />
            </Array>
          </mxGeometry>
        </mxCell>
        <mxCell id="Tq09RANnmWX7quzsQ5gN-50" value="&lt;font style=&quot;font-size: 12px;&quot;&gt;/output/depth&lt;/font&gt;" style="rounded=1;whiteSpace=wrap;html=1;shadow=0;sketch=0;fontSize=20;strokeWidth=1;fillColor=#f5f5f5;fontColor=#333333;strokeColor=#666666;" vertex="1" parent="1">
          <mxGeometry x="570" y="220" width="120" height="20" as="geometry" />
        </mxCell>
        <mxCell id="Tq09RANnmWX7quzsQ5gN-51" value="&lt;span style=&quot;font-size: 12px;&quot;&gt;ROS2 Topic&lt;/span&gt;&lt;br style=&quot;font-size: 12px;&quot;&gt;&lt;b style=&quot;font-size: 12px;&quot;&gt;Image&lt;/b&gt;" style="text;html=1;align=center;verticalAlign=middle;resizable=0;points=[];autosize=1;strokeColor=none;fillColor=none;fontSize=15;" vertex="1" parent="1">
          <mxGeometry x="585" y="170" width="90" height="50" as="geometry" />
        </mxCell>
        <mxCell id="Tq09RANnmWX7quzsQ5gN-56" value="&lt;font style=&quot;font-size: 12px;&quot;&gt;/goal_joint_space_path&lt;/font&gt;" style="rounded=1;whiteSpace=wrap;html=1;shadow=0;sketch=0;fontSize=20;strokeWidth=1;fillColor=#f5f5f5;fontColor=#333333;strokeColor=#666666;" vertex="1" parent="1">
          <mxGeometry x="250" y="155" width="140" height="30" as="geometry" />
        </mxCell>
        <mxCell id="Tq09RANnmWX7quzsQ5gN-57" value="&lt;font style=&quot;font-size: 12px;&quot;&gt;ROS2 Service&lt;br&gt;&lt;b&gt;SetJointPosition&lt;/b&gt;&lt;/font&gt;" style="text;html=1;align=center;verticalAlign=middle;resizable=0;points=[];autosize=1;strokeColor=none;fillColor=none;fontSize=15;" vertex="1" parent="1">
          <mxGeometry x="250" y="110" width="120" height="50" as="geometry" />
        </mxCell>
        <mxCell id="Tq09RANnmWX7quzsQ5gN-58" value="&lt;font style=&quot;font-size: 10px;&quot;&gt;server&lt;/font&gt;" style="text;html=1;align=center;verticalAlign=middle;resizable=0;points=[];autosize=1;strokeColor=none;fillColor=none;fontSize=15;" vertex="1" parent="1">
          <mxGeometry x="380" y="160" width="50" height="30" as="geometry" />
        </mxCell>
        <mxCell id="Tq09RANnmWX7quzsQ5gN-59" value="&lt;font style=&quot;font-size: 10px;&quot;&gt;client&lt;/font&gt;" style="text;html=1;align=center;verticalAlign=middle;resizable=0;points=[];autosize=1;strokeColor=none;fillColor=none;fontSize=15;" vertex="1" parent="1">
          <mxGeometry x="210" y="160" width="50" height="30" as="geometry" />
        </mxCell>
        <mxCell id="Tq09RANnmWX7quzsQ5gN-62" value="&lt;font style=&quot;font-size: 12px;&quot;&gt;/goal_tool_control&lt;/font&gt;" style="rounded=1;whiteSpace=wrap;html=1;shadow=0;sketch=0;fontSize=20;strokeWidth=1;fillColor=#f5f5f5;fontColor=#333333;strokeColor=#666666;" vertex="1" parent="1">
          <mxGeometry x="250" y="230" width="140" height="30" as="geometry" />
        </mxCell>
        <mxCell id="Tq09RANnmWX7quzsQ5gN-63" value="&lt;font style=&quot;font-size: 12px;&quot;&gt;ROS2 Service&lt;br&gt;&lt;b&gt;SetJointPosition&lt;/b&gt;&lt;/font&gt;" style="text;html=1;align=center;verticalAlign=middle;resizable=0;points=[];autosize=1;strokeColor=none;fillColor=none;fontSize=15;" vertex="1" parent="1">
          <mxGeometry x="250" y="185" width="120" height="50" as="geometry" />
        </mxCell>
        <mxCell id="Tq09RANnmWX7quzsQ5gN-64" value="&lt;font style=&quot;font-size: 10px;&quot;&gt;server&lt;/font&gt;" style="text;html=1;align=center;verticalAlign=middle;resizable=0;points=[];autosize=1;strokeColor=none;fillColor=none;fontSize=15;" vertex="1" parent="1">
          <mxGeometry x="380" y="235" width="50" height="30" as="geometry" />
        </mxCell>
        <mxCell id="Tq09RANnmWX7quzsQ5gN-65" value="&lt;font style=&quot;font-size: 10px;&quot;&gt;client&lt;/font&gt;" style="text;html=1;align=center;verticalAlign=middle;resizable=0;points=[];autosize=1;strokeColor=none;fillColor=none;fontSize=15;" vertex="1" parent="1">
          <mxGeometry x="210" y="235" width="50" height="30" as="geometry" />
        </mxCell>
        <mxCell id="Tq09RANnmWX7quzsQ5gN-66" value="&lt;b&gt;&lt;font color=&quot;#ff3333&quot; style=&quot;font-size: 15px;&quot;&gt;OpenMANIPULATOR-X&lt;/font&gt;&lt;/b&gt;" style="rounded=1;whiteSpace=wrap;html=1;shadow=0;sketch=0;fontSize=11;strokeWidth=1;gradientColor=none;verticalAlign=bottom;" vertex="1" parent="1">
          <mxGeometry x="130" y="340" width="410" height="110" as="geometry" />
        </mxCell>
        <mxCell id="Tq09RANnmWX7quzsQ5gN-9" value="" style="endArrow=none;html=1;rounded=0;fontSize=20;" edge="1" parent="1">
          <mxGeometry width="50" height="50" relative="1" as="geometry">
            <mxPoint x="560.0000000000001" y="300" as="sourcePoint" />
            <mxPoint x="560.0000000000001" y="610" as="targetPoint" />
          </mxGeometry>
        </mxCell>
        <mxCell id="Tq09RANnmWX7quzsQ5gN-69" value="&lt;b&gt;&lt;font color=&quot;#ff3333&quot; style=&quot;font-size: 15px;&quot;&gt;Realsense&lt;/font&gt;&lt;/b&gt;" style="rounded=1;whiteSpace=wrap;html=1;shadow=0;sketch=0;fontSize=11;strokeWidth=1;gradientColor=none;verticalAlign=top;" vertex="1" parent="1">
          <mxGeometry x="130" y="460" width="410" height="130" as="geometry" />
        </mxCell>
        <mxCell id="Tq09RANnmWX7quzsQ5gN-71" value="/tracker" style="ellipse;whiteSpace=wrap;html=1;rounded=1;shadow=0;sketch=0;fontSize=15;strokeWidth=1;fillColor=#fff2cc;strokeColor=#d6b656;" vertex="1" parent="1">
          <mxGeometry x="160" y="495" width="130" height="70" as="geometry" />
        </mxCell>
        <mxCell id="Tq09RANnmWX7quzsQ5gN-72" value="&lt;font style=&quot;font-size: 12px;&quot;&gt;/realsense2_camera_node&lt;/font&gt;" style="ellipse;whiteSpace=wrap;html=1;rounded=1;shadow=0;sketch=0;fontSize=15;strokeWidth=1;fillColor=#fff2cc;strokeColor=#d6b656;" vertex="1" parent="1">
          <mxGeometry x="300" y="495" width="170" height="70" as="geometry" />
        </mxCell>
        <mxCell id="Tq09RANnmWX7quzsQ5gN-73" value="&lt;font style=&quot;font-size: 11px;&quot;&gt;/&lt;font style=&quot;font-size: 11px;&quot;&gt;grabber_from_image_cords&lt;/font&gt;&lt;/font&gt;" style="ellipse;whiteSpace=wrap;html=1;rounded=1;shadow=0;sketch=0;fontSize=15;strokeWidth=1;fillColor=#fff2cc;strokeColor=#d6b656;" vertex="1" parent="1">
          <mxGeometry x="150" y="350" width="150" height="70" as="geometry" />
        </mxCell>
        <mxCell id="Tq09RANnmWX7quzsQ5gN-74" value="&lt;font style=&quot;font-size: 11px;&quot;&gt;/open_manipulator_x_controller&lt;/font&gt;" style="ellipse;whiteSpace=wrap;html=1;rounded=1;shadow=0;sketch=0;fontSize=15;strokeWidth=1;fillColor=#fff2cc;strokeColor=#d6b656;" vertex="1" parent="1">
          <mxGeometry x="310" y="350" width="160" height="70" as="geometry" />
        </mxCell>
        <mxCell id="Tq09RANnmWX7quzsQ5gN-60" style="edgeStyle=orthogonalEdgeStyle;rounded=0;orthogonalLoop=1;jettySize=auto;html=1;exitX=1;exitY=0.5;exitDx=0;exitDy=0;fontSize=15;endArrow=none;endFill=0;fillColor=#d5e8d4;strokeColor=#82b366;dashed=1;strokeWidth=2;" edge="1" parent="1" source="Tq09RANnmWX7quzsQ5gN-62" target="Tq09RANnmWX7quzsQ5gN-74">
          <mxGeometry relative="1" as="geometry">
            <mxPoint x="450" y="240" as="targetPoint" />
            <Array as="points">
              <mxPoint x="390" y="240" />
              <mxPoint x="430" y="240" />
            </Array>
          </mxGeometry>
        </mxCell>
        <mxCell id="Tq09RANnmWX7quzsQ5gN-54" style="edgeStyle=orthogonalEdgeStyle;rounded=0;orthogonalLoop=1;jettySize=auto;html=1;exitX=1;exitY=0.5;exitDx=0;exitDy=0;fontSize=15;endArrow=none;endFill=0;startArrow=none;startFill=0;fillColor=#d5e8d4;strokeColor=#82b366;dashed=1;strokeWidth=2;" edge="1" parent="1" source="Tq09RANnmWX7quzsQ5gN-56" target="Tq09RANnmWX7quzsQ5gN-74">
          <mxGeometry relative="1" as="geometry">
            <mxPoint x="450" y="165" as="targetPoint" />
            <Array as="points">
              <mxPoint x="390" y="165" />
              <mxPoint x="440" y="165" />
            </Array>
          </mxGeometry>
        </mxCell>
        <mxCell id="Tq09RANnmWX7quzsQ5gN-19" style="edgeStyle=orthogonalEdgeStyle;rounded=0;orthogonalLoop=1;jettySize=auto;html=1;exitX=1;exitY=0.5;exitDx=0;exitDy=0;fontSize=15;endArrow=none;endFill=0;fillColor=#d5e8d4;strokeColor=#82b366;dashed=1;strokeWidth=2;" edge="1" parent="1" source="Tq09RANnmWX7quzsQ5gN-17" target="Tq09RANnmWX7quzsQ5gN-74">
          <mxGeometry relative="1" as="geometry">
            <mxPoint x="470" y="350" as="targetPoint" />
            <Array as="points">
              <mxPoint x="390" y="90" />
              <mxPoint x="450" y="90" />
            </Array>
          </mxGeometry>
        </mxCell>
        <mxCell id="Tq09RANnmWX7quzsQ5gN-61" style="edgeStyle=orthogonalEdgeStyle;rounded=0;orthogonalLoop=1;jettySize=auto;html=1;exitX=0;exitY=0.5;exitDx=0;exitDy=0;fontSize=15;endArrow=none;endFill=0;fillColor=#d5e8d4;strokeColor=#82b366;dashed=1;strokeWidth=2;" edge="1" parent="1" source="Tq09RANnmWX7quzsQ5gN-62" target="Tq09RANnmWX7quzsQ5gN-73">
          <mxGeometry relative="1" as="geometry">
            <mxPoint x="205" y="240" as="targetPoint" />
            <Array as="points">
              <mxPoint x="250" y="240" />
              <mxPoint x="210" y="240" />
            </Array>
          </mxGeometry>
        </mxCell>
        <mxCell id="Tq09RANnmWX7quzsQ5gN-55" style="edgeStyle=orthogonalEdgeStyle;rounded=0;orthogonalLoop=1;jettySize=auto;html=1;exitX=0;exitY=0.5;exitDx=0;exitDy=0;fontSize=15;endArrow=none;endFill=0;fillColor=#d5e8d4;strokeColor=#82b366;dashed=1;strokeWidth=2;" edge="1" parent="1" source="Tq09RANnmWX7quzsQ5gN-56" target="Tq09RANnmWX7quzsQ5gN-73">
          <mxGeometry relative="1" as="geometry">
            <mxPoint x="205" y="165" as="targetPoint" />
            <Array as="points">
              <mxPoint x="250" y="165" />
              <mxPoint x="200" y="165" />
            </Array>
          </mxGeometry>
        </mxCell>
        <mxCell id="Tq09RANnmWX7quzsQ5gN-20" style="edgeStyle=orthogonalEdgeStyle;rounded=0;orthogonalLoop=1;jettySize=auto;html=1;exitX=0;exitY=0.5;exitDx=0;exitDy=0;fontSize=15;endArrow=none;endFill=0;fillColor=#d5e8d4;strokeColor=#82b366;dashed=1;strokeWidth=2;" edge="1" parent="1" source="Tq09RANnmWX7quzsQ5gN-17" target="Tq09RANnmWX7quzsQ5gN-73">
          <mxGeometry relative="1" as="geometry">
            <mxPoint x="205" y="90" as="targetPoint" />
            <Array as="points">
              <mxPoint x="250" y="90" />
              <mxPoint x="190" y="90" />
            </Array>
          </mxGeometry>
        </mxCell>
        <mxCell id="Tq09RANnmWX7quzsQ5gN-37" style="edgeStyle=orthogonalEdgeStyle;rounded=0;orthogonalLoop=1;jettySize=auto;html=1;exitX=0;exitY=0.5;exitDx=0;exitDy=0;fontSize=15;endArrow=none;endFill=0;startArrow=classic;startFill=1;fillColor=#dae8fc;strokeColor=#6c8ebf;dashed=1;strokeWidth=2;" edge="1" parent="1" source="Tq09RANnmWX7quzsQ5gN-38" target="Tq09RANnmWX7quzsQ5gN-71">
          <mxGeometry relative="1" as="geometry">
            <mxPoint x="670" y="80" as="targetPoint" />
            <Array as="points">
              <mxPoint x="550" y="80" />
              <mxPoint x="550" y="10" />
              <mxPoint x="40" y="10" />
              <mxPoint x="40" y="550" />
            </Array>
          </mxGeometry>
        </mxCell>
        <mxCell id="Tq09RANnmWX7quzsQ5gN-43" style="edgeStyle=orthogonalEdgeStyle;rounded=0;orthogonalLoop=1;jettySize=auto;html=1;exitX=0;exitY=0.5;exitDx=0;exitDy=0;fontSize=15;endArrow=none;endFill=0;startArrow=classic;startFill=1;fillColor=#dae8fc;strokeColor=#6c8ebf;dashed=1;strokeWidth=2;" edge="1" parent="1" source="Tq09RANnmWX7quzsQ5gN-44" target="Tq09RANnmWX7quzsQ5gN-71">
          <mxGeometry relative="1" as="geometry">
            <mxPoint x="670" y="150" as="targetPoint" />
            <Array as="points">
              <mxPoint x="540" y="150" />
              <mxPoint x="540" y="20" />
              <mxPoint x="50" y="20" />
              <mxPoint x="50" y="530" />
            </Array>
          </mxGeometry>
        </mxCell>
        <mxCell id="Tq09RANnmWX7quzsQ5gN-49" style="edgeStyle=orthogonalEdgeStyle;rounded=0;orthogonalLoop=1;jettySize=auto;html=1;exitX=0;exitY=0.5;exitDx=0;exitDy=0;fontSize=15;endArrow=none;endFill=0;startArrow=classic;startFill=1;fillColor=#dae8fc;strokeColor=#6c8ebf;dashed=1;strokeWidth=2;" edge="1" parent="1" source="Tq09RANnmWX7quzsQ5gN-50" target="Tq09RANnmWX7quzsQ5gN-71">
          <mxGeometry relative="1" as="geometry">
            <mxPoint x="670" y="230" as="targetPoint" />
            <Array as="points">
              <mxPoint x="530" y="230" />
              <mxPoint x="530" y="30" />
              <mxPoint x="60" y="30" />
              <mxPoint x="60" y="510" />
            </Array>
          </mxGeometry>
        </mxCell>
        <mxCell id="Tq09RANnmWX7quzsQ5gN-81" style="edgeStyle=orthogonalEdgeStyle;rounded=0;orthogonalLoop=1;jettySize=auto;html=1;fontSize=12;startArrow=classic;startFill=1;endArrow=none;endFill=0;targetPerimeterSpacing=0;fillColor=#dae8fc;strokeColor=#6c8ebf;dashed=1;strokeWidth=2;" edge="1" parent="1" source="Tq09RANnmWX7quzsQ5gN-75" target="Tq09RANnmWX7quzsQ5gN-72">
          <mxGeometry relative="1" as="geometry">
            <mxPoint x="400" y="695" as="targetPoint" />
            <Array as="points">
              <mxPoint x="420" y="685" />
            </Array>
          </mxGeometry>
        </mxCell>
        <mxCell id="Tq09RANnmWX7quzsQ5gN-83" style="edgeStyle=orthogonalEdgeStyle;rounded=0;orthogonalLoop=1;jettySize=auto;html=1;fontSize=12;startArrow=none;startFill=0;endArrow=classic;endFill=1;targetPerimeterSpacing=0;fillColor=#dae8fc;strokeColor=#6c8ebf;dashed=1;strokeWidth=2;" edge="1" parent="1" source="Tq09RANnmWX7quzsQ5gN-75" target="Tq09RANnmWX7quzsQ5gN-71">
          <mxGeometry relative="1" as="geometry">
            <Array as="points">
              <mxPoint x="250" y="685" />
            </Array>
          </mxGeometry>
        </mxCell>
        <mxCell id="Tq09RANnmWX7quzsQ5gN-75" value="&lt;font style=&quot;font-size: 12px;&quot;&gt;/color/image_raw&lt;/font&gt;" style="rounded=1;whiteSpace=wrap;html=1;shadow=0;sketch=0;fontSize=20;strokeWidth=1;fillColor=#f5f5f5;fontColor=#333333;strokeColor=#666666;" vertex="1" parent="1">
          <mxGeometry x="270" y="670" width="120" height="30" as="geometry" />
        </mxCell>
        <mxCell id="Tq09RANnmWX7quzsQ5gN-82" style="edgeStyle=orthogonalEdgeStyle;rounded=0;orthogonalLoop=1;jettySize=auto;html=1;fontSize=12;startArrow=classic;startFill=1;endArrow=none;endFill=0;targetPerimeterSpacing=0;fillColor=#dae8fc;strokeColor=#6c8ebf;dashed=1;strokeWidth=2;" edge="1" parent="1" source="Tq09RANnmWX7quzsQ5gN-76" target="Tq09RANnmWX7quzsQ5gN-72">
          <mxGeometry relative="1" as="geometry">
            <mxPoint x="430" y="650" as="targetPoint" />
            <Array as="points">
              <mxPoint x="440" y="765" />
            </Array>
          </mxGeometry>
        </mxCell>
        <mxCell id="Tq09RANnmWX7quzsQ5gN-84" style="edgeStyle=orthogonalEdgeStyle;rounded=0;orthogonalLoop=1;jettySize=auto;html=1;fontSize=12;startArrow=none;startFill=0;endArrow=classic;endFill=1;targetPerimeterSpacing=0;fillColor=#dae8fc;strokeColor=#6c8ebf;dashed=1;strokeWidth=2;" edge="1" parent="1" source="Tq09RANnmWX7quzsQ5gN-76" target="Tq09RANnmWX7quzsQ5gN-71">
          <mxGeometry relative="1" as="geometry">
            <mxPoint x="180" y="630" as="targetPoint" />
            <Array as="points">
              <mxPoint x="230" y="765" />
            </Array>
          </mxGeometry>
        </mxCell>
        <mxCell id="Tq09RANnmWX7quzsQ5gN-76" value="&lt;font style=&quot;font-size: 12px;&quot;&gt;/depth/image_rect_raw&lt;/font&gt;" style="rounded=1;whiteSpace=wrap;html=1;shadow=0;sketch=0;fontSize=20;strokeWidth=1;fillColor=#f5f5f5;fontColor=#333333;strokeColor=#666666;" vertex="1" parent="1">
          <mxGeometry x="260" y="750" width="140" height="30" as="geometry" />
        </mxCell>
        <mxCell id="Tq09RANnmWX7quzsQ5gN-77" value="&lt;span style=&quot;font-size: 12px;&quot;&gt;ROS2 Topic&lt;/span&gt;&lt;br style=&quot;font-size: 12px;&quot;&gt;&lt;b style=&quot;font-size: 12px;&quot;&gt;Image&lt;/b&gt;" style="text;html=1;align=center;verticalAlign=middle;resizable=0;points=[];autosize=1;strokeColor=none;fillColor=none;fontSize=15;" vertex="1" parent="1">
          <mxGeometry x="285" y="700" width="90" height="50" as="geometry" />
        </mxCell>
        <mxCell id="Tq09RANnmWX7quzsQ5gN-78" value="&lt;span style=&quot;font-size: 12px;&quot;&gt;ROS2 Topic&lt;/span&gt;&lt;br style=&quot;font-size: 12px;&quot;&gt;&lt;b style=&quot;font-size: 12px;&quot;&gt;Image&lt;/b&gt;" style="text;html=1;align=center;verticalAlign=middle;resizable=0;points=[];autosize=1;strokeColor=none;fillColor=none;fontSize=15;" vertex="1" parent="1">
          <mxGeometry x="285" y="620" width="90" height="50" as="geometry" />
        </mxCell>
        <mxCell id="Tq09RANnmWX7quzsQ5gN-89" style="edgeStyle=orthogonalEdgeStyle;rounded=0;orthogonalLoop=1;jettySize=auto;html=1;exitX=0;exitY=0.5;exitDx=0;exitDy=0;entryX=1;entryY=0.5;entryDx=0;entryDy=0;fontSize=12;startArrow=none;startFill=0;endArrow=none;endFill=0;targetPerimeterSpacing=0;strokeWidth=10;strokeColor=#660066;" edge="1" parent="1" source="Tq09RANnmWX7quzsQ5gN-85" target="Tq09RANnmWX7quzsQ5gN-86">
          <mxGeometry relative="1" as="geometry" />
        </mxCell>
        <mxCell id="Tq09RANnmWX7quzsQ5gN-85" value="USB" style="rounded=0;whiteSpace=wrap;html=1;shadow=0;sketch=0;fontSize=12;strokeWidth=1;gradientColor=none;" vertex="1" parent="1">
          <mxGeometry x="560" y="372.5" width="60" height="25" as="geometry" />
        </mxCell>
        <mxCell id="Tq09RANnmWX7quzsQ5gN-86" value="MicroUSB" style="rounded=0;whiteSpace=wrap;html=1;shadow=0;sketch=0;fontSize=12;strokeWidth=1;gradientColor=none;" vertex="1" parent="1">
          <mxGeometry x="480" y="372.5" width="60" height="25" as="geometry" />
        </mxCell>
        <mxCell id="Tq09RANnmWX7quzsQ5gN-87" value="USB" style="rounded=0;whiteSpace=wrap;html=1;shadow=0;sketch=0;fontSize=12;strokeWidth=1;gradientColor=none;" vertex="1" parent="1">
          <mxGeometry x="560" y="512.5" width="60" height="25" as="geometry" />
        </mxCell>
        <mxCell id="Tq09RANnmWX7quzsQ5gN-88" value="USB-C" style="rounded=0;whiteSpace=wrap;html=1;shadow=0;sketch=0;fontSize=12;strokeWidth=1;gradientColor=none;" vertex="1" parent="1">
          <mxGeometry x="480" y="512.5" width="60" height="25" as="geometry" />
        </mxCell>
        <mxCell id="Tq09RANnmWX7quzsQ5gN-90" style="edgeStyle=orthogonalEdgeStyle;rounded=0;orthogonalLoop=1;jettySize=auto;html=1;exitX=0;exitY=0.5;exitDx=0;exitDy=0;fontSize=12;startArrow=none;startFill=0;endArrow=none;endFill=0;targetPerimeterSpacing=0;strokeWidth=10;strokeColor=#660066;" edge="1" parent="1" target="Tq09RANnmWX7quzsQ5gN-88">
          <mxGeometry relative="1" as="geometry">
            <mxPoint x="560" y="524.58" as="sourcePoint" />
            <mxPoint x="550" y="524.58" as="targetPoint" />
          </mxGeometry>
        </mxCell>
        <mxCell id="Tq09RANnmWX7quzsQ5gN-93" value="&lt;b&gt;&lt;font style=&quot;font-size: 18px;&quot;&gt;Docker ROSbot&lt;/font&gt;&lt;/b&gt;" style="rounded=1;whiteSpace=wrap;html=1;shadow=0;sketch=0;fontSize=14;strokeWidth=1;gradientColor=none;verticalAlign=top;arcSize=8;" vertex="1" parent="1">
          <mxGeometry x="580" y="700" width="400" height="300" as="geometry" />
        </mxCell>
        <mxCell id="Tq09RANnmWX7quzsQ5gN-94" value="&lt;font style=&quot;font-size: 11px;&quot;&gt;compose.rosbot.mapping.yaml or compose.rosbot.localization.yaml&lt;/font&gt;" style="rounded=1;whiteSpace=wrap;html=1;shadow=0;sketch=0;fontSize=18;strokeWidth=1;gradientColor=none;" vertex="1" parent="1">
          <mxGeometry x="600" y="780" width="360" height="30" as="geometry" />
        </mxCell>
        <mxCell id="Tq09RANnmWX7quzsQ5gN-95" value="&lt;font style=&quot;font-size: 12px;&quot;&gt;compose.rosbot.lan.yaml&lt;/font&gt;" style="rounded=1;whiteSpace=wrap;html=1;shadow=0;sketch=0;fontSize=18;strokeWidth=1;gradientColor=none;" vertex="1" parent="1">
          <mxGeometry x="600" y="740" width="360" height="30" as="geometry" />
        </mxCell>
        <mxCell id="Tq09RANnmWX7quzsQ5gN-96" value="&lt;font style=&quot;font-size: 12px;&quot;&gt;compose.rosbot.hardware.yaml&lt;/font&gt;" style="rounded=1;whiteSpace=wrap;html=1;shadow=0;sketch=0;fontSize=18;strokeWidth=1;gradientColor=none;" vertex="1" parent="1">
          <mxGeometry x="600" y="820" width="360" height="30" as="geometry" />
        </mxCell>
        <mxCell id="Tq09RANnmWX7quzsQ5gN-97" value="&lt;font style=&quot;font-size: 12px;&quot;&gt;compose.rosbot.control.yaml&lt;/font&gt;" style="rounded=1;whiteSpace=wrap;html=1;shadow=0;sketch=0;fontSize=18;strokeWidth=1;gradientColor=none;verticalAlign=top;" vertex="1" parent="1">
          <mxGeometry x="600" y="860" width="360" height="120" as="geometry" />
        </mxCell>
        <mxCell id="Tq09RANnmWX7quzsQ5gN-125" style="edgeStyle=orthogonalEdgeStyle;rounded=0;orthogonalLoop=1;jettySize=auto;html=1;dashed=1;fontSize=12;startArrow=none;startFill=0;endArrow=classic;endFill=1;targetPerimeterSpacing=0;strokeColor=#6c8ebf;strokeWidth=2;entryX=1;entryY=0.5;entryDx=0;entryDy=0;fillColor=#dae8fc;" edge="1" parent="1" source="Tq09RANnmWX7quzsQ5gN-101" target="Tq09RANnmWX7quzsQ5gN-112">
          <mxGeometry relative="1" as="geometry">
            <Array as="points">
              <mxPoint x="390" y="940" />
            </Array>
          </mxGeometry>
        </mxCell>
        <mxCell id="Tq09RANnmWX7quzsQ5gN-101" value="&lt;font style=&quot;font-size: 15px;&quot;&gt;/rosbot_control&lt;/font&gt;" style="ellipse;whiteSpace=wrap;html=1;rounded=1;shadow=0;sketch=0;fontSize=12;strokeWidth=1;fillColor=#fff2cc;strokeColor=#d6b656;" vertex="1" parent="1">
          <mxGeometry x="730" y="900" width="140" height="60" as="geometry" />
        </mxCell>
        <mxCell id="Tq09RANnmWX7quzsQ5gN-102" style="edgeStyle=orthogonalEdgeStyle;rounded=0;orthogonalLoop=1;jettySize=auto;html=1;exitX=0.5;exitY=1;exitDx=0;exitDy=0;dashed=1;fontSize=15;startArrow=none;startFill=0;endArrow=none;endFill=0;targetPerimeterSpacing=0;strokeColor=#660066;strokeWidth=10;" edge="1" parent="1" source="Tq09RANnmWX7quzsQ5gN-93" target="Tq09RANnmWX7quzsQ5gN-93">
          <mxGeometry relative="1" as="geometry" />
        </mxCell>
        <mxCell id="Tq09RANnmWX7quzsQ5gN-107" style="edgeStyle=orthogonalEdgeStyle;rounded=0;orthogonalLoop=1;jettySize=auto;html=1;dashed=1;fontSize=15;startArrow=classic;startFill=1;endArrow=none;endFill=0;targetPerimeterSpacing=0;strokeColor=#6c8ebf;strokeWidth=2;fillColor=#dae8fc;exitX=0;exitY=0.5;exitDx=0;exitDy=0;" edge="1" parent="1" source="Tq09RANnmWX7quzsQ5gN-103" target="Tq09RANnmWX7quzsQ5gN-16">
          <mxGeometry relative="1" as="geometry">
            <Array as="points">
              <mxPoint x="830" y="238" />
            </Array>
          </mxGeometry>
        </mxCell>
        <mxCell id="Tq09RANnmWX7quzsQ5gN-109" style="edgeStyle=orthogonalEdgeStyle;rounded=0;orthogonalLoop=1;jettySize=auto;html=1;exitX=1;exitY=0.5;exitDx=0;exitDy=0;dashed=1;fontSize=15;startArrow=none;startFill=0;endArrow=classic;endFill=1;targetPerimeterSpacing=0;strokeColor=#6c8ebf;strokeWidth=2;fillColor=#dae8fc;" edge="1" parent="1" source="Tq09RANnmWX7quzsQ5gN-103" target="Tq09RANnmWX7quzsQ5gN-101">
          <mxGeometry relative="1" as="geometry">
            <Array as="points">
              <mxPoint x="1060" y="238" />
              <mxPoint x="1060" y="920" />
            </Array>
          </mxGeometry>
        </mxCell>
        <mxCell id="Tq09RANnmWX7quzsQ5gN-103" value="&lt;font style=&quot;font-size: 12px;&quot;&gt;/clicked_point&lt;/font&gt;" style="rounded=1;whiteSpace=wrap;html=1;shadow=0;sketch=0;fontSize=20;strokeWidth=1;fillColor=#f5f5f5;fontColor=#333333;strokeColor=#666666;" vertex="1" parent="1">
          <mxGeometry x="870" y="225" width="120" height="25" as="geometry" />
        </mxCell>
        <mxCell id="Tq09RANnmWX7quzsQ5gN-104" value="&lt;span style=&quot;font-size: 12px;&quot;&gt;ROS2 Topic&lt;/span&gt;&lt;br style=&quot;font-size: 12px;&quot;&gt;&lt;b style=&quot;font-size: 12px;&quot;&gt;PointStamped&lt;/b&gt;" style="text;html=1;align=center;verticalAlign=middle;resizable=0;points=[];autosize=1;strokeColor=none;fillColor=none;fontSize=15;" vertex="1" parent="1">
          <mxGeometry x="880" y="175" width="100" height="50" as="geometry" />
        </mxCell>
        <mxCell id="Tq09RANnmWX7quzsQ5gN-110" style="edgeStyle=orthogonalEdgeStyle;rounded=0;orthogonalLoop=1;jettySize=auto;html=1;dashed=1;fontSize=15;startArrow=none;startFill=0;endArrow=classic;endFill=1;targetPerimeterSpacing=0;strokeColor=#6c8ebf;strokeWidth=3;fillColor=#dae8fc;" edge="1" parent="1" source="Tq09RANnmWX7quzsQ5gN-105" target="Tq09RANnmWX7quzsQ5gN-16">
          <mxGeometry relative="1" as="geometry">
            <Array as="points">
              <mxPoint x="810" y="145" />
            </Array>
          </mxGeometry>
        </mxCell>
        <mxCell id="Tq09RANnmWX7quzsQ5gN-111" style="edgeStyle=orthogonalEdgeStyle;rounded=0;orthogonalLoop=1;jettySize=auto;html=1;exitX=1;exitY=0.5;exitDx=0;exitDy=0;dashed=1;fontSize=15;startArrow=classic;startFill=1;endArrow=none;endFill=0;targetPerimeterSpacing=0;strokeColor=#6c8ebf;strokeWidth=3;fillColor=#dae8fc;entryX=0.976;entryY=0.669;entryDx=0;entryDy=0;entryPerimeter=0;" edge="1" parent="1" source="Tq09RANnmWX7quzsQ5gN-105" target="Tq09RANnmWX7quzsQ5gN-101">
          <mxGeometry relative="1" as="geometry">
            <Array as="points">
              <mxPoint x="1080" y="145" />
              <mxPoint x="1080" y="940" />
            </Array>
          </mxGeometry>
        </mxCell>
        <mxCell id="Tq09RANnmWX7quzsQ5gN-105" value="&lt;font style=&quot;font-size: 12px;&quot;&gt;standard&lt;br style=&quot;font-size: 12px;&quot;&gt;ROSbot-rviz topics*&lt;br style=&quot;font-size: 12px;&quot;&gt;&lt;/font&gt;" style="rounded=1;whiteSpace=wrap;html=1;shadow=0;sketch=0;fontSize=12;strokeWidth=1;fillColor=#f5f5f5;fontColor=#333333;strokeColor=#666666;" vertex="1" parent="1">
          <mxGeometry x="870" y="120" width="120" height="50" as="geometry" />
        </mxCell>
        <mxCell id="Tq09RANnmWX7quzsQ5gN-106" value="&lt;span style=&quot;font-size: 12px;&quot;&gt;ROS2 Topics*&lt;/span&gt;" style="text;html=1;align=center;verticalAlign=middle;resizable=0;points=[];autosize=1;strokeColor=none;fillColor=none;fontSize=15;" vertex="1" parent="1">
          <mxGeometry x="880" y="90" width="100" height="30" as="geometry" />
        </mxCell>
        <mxCell id="Tq09RANnmWX7quzsQ5gN-126" style="edgeStyle=orthogonalEdgeStyle;rounded=0;orthogonalLoop=1;jettySize=auto;html=1;dashed=1;fontSize=12;startArrow=none;startFill=0;endArrow=classic;endFill=1;targetPerimeterSpacing=0;strokeColor=#6c8ebf;strokeWidth=2;fillColor=#dae8fc;" edge="1" parent="1" source="Tq09RANnmWX7quzsQ5gN-112" target="Tq09RANnmWX7quzsQ5gN-73">
          <mxGeometry relative="1" as="geometry">
            <mxPoint x="90" y="380" as="targetPoint" />
            <Array as="points">
              <mxPoint x="80" y="950" />
              <mxPoint x="80" y="370" />
            </Array>
          </mxGeometry>
        </mxCell>
        <mxCell id="Tq09RANnmWX7quzsQ5gN-112" value="&lt;font style=&quot;font-size: 12px;&quot;&gt;/rosbot_arrived&lt;/font&gt;" style="rounded=1;whiteSpace=wrap;html=1;shadow=0;sketch=0;fontSize=20;strokeWidth=1;fillColor=#f5f5f5;fontColor=#333333;strokeColor=#666666;" vertex="1" parent="1">
          <mxGeometry x="270" y="925" width="120" height="30" as="geometry" />
        </mxCell>
        <mxCell id="Tq09RANnmWX7quzsQ5gN-113" value="&lt;span style=&quot;font-size: 12px;&quot;&gt;ROS2 Topic&lt;/span&gt;&lt;br style=&quot;font-size: 12px;&quot;&gt;&lt;b style=&quot;font-size: 12px;&quot;&gt;Bool&lt;/b&gt;" style="text;html=1;align=center;verticalAlign=middle;resizable=0;points=[];autosize=1;strokeColor=none;fillColor=none;fontSize=15;" vertex="1" parent="1">
          <mxGeometry x="285" y="875" width="90" height="50" as="geometry" />
        </mxCell>
        <mxCell id="Tq09RANnmWX7quzsQ5gN-124" style="edgeStyle=orthogonalEdgeStyle;rounded=0;orthogonalLoop=1;jettySize=auto;html=1;dashed=1;fontSize=12;startArrow=none;startFill=0;endArrow=classic;endFill=1;targetPerimeterSpacing=0;strokeColor=#6c8ebf;strokeWidth=2;fillColor=#dae8fc;" edge="1" parent="1" source="Tq09RANnmWX7quzsQ5gN-114" target="Tq09RANnmWX7quzsQ5gN-101">
          <mxGeometry relative="1" as="geometry">
            <Array as="points">
              <mxPoint x="440" y="855" />
              <mxPoint x="440" y="920" />
            </Array>
          </mxGeometry>
        </mxCell>
        <mxCell id="Tq09RANnmWX7quzsQ5gN-128" style="edgeStyle=orthogonalEdgeStyle;rounded=0;orthogonalLoop=1;jettySize=auto;html=1;exitX=0;exitY=0.5;exitDx=0;exitDy=0;dashed=1;fontSize=11;startArrow=classic;startFill=1;endArrow=none;endFill=0;targetPerimeterSpacing=0;strokeColor=#6c8ebf;strokeWidth=2;fillColor=#dae8fc;" edge="1" parent="1" source="Tq09RANnmWX7quzsQ5gN-114" target="Tq09RANnmWX7quzsQ5gN-71">
          <mxGeometry relative="1" as="geometry">
            <Array as="points">
              <mxPoint x="210" y="855" />
            </Array>
          </mxGeometry>
        </mxCell>
        <mxCell id="Tq09RANnmWX7quzsQ5gN-114" value="&lt;font style=&quot;font-size: 12px;&quot;&gt;/manip_finished&lt;/font&gt;" style="rounded=1;whiteSpace=wrap;html=1;shadow=0;sketch=0;fontSize=20;strokeWidth=1;fillColor=#f5f5f5;fontColor=#333333;strokeColor=#666666;" vertex="1" parent="1">
          <mxGeometry x="270" y="840" width="120" height="30" as="geometry" />
        </mxCell>
        <mxCell id="Tq09RANnmWX7quzsQ5gN-115" value="&lt;span style=&quot;font-size: 12px;&quot;&gt;ROS2 Topic&lt;/span&gt;&lt;br style=&quot;font-size: 12px;&quot;&gt;&lt;b style=&quot;font-size: 12px;&quot;&gt;Bool&lt;/b&gt;" style="text;html=1;align=center;verticalAlign=middle;resizable=0;points=[];autosize=1;strokeColor=none;fillColor=none;fontSize=15;" vertex="1" parent="1">
          <mxGeometry x="285" y="790" width="90" height="50" as="geometry" />
        </mxCell>
        <mxCell id="Tq09RANnmWX7quzsQ5gN-118" style="edgeStyle=orthogonalEdgeStyle;rounded=0;orthogonalLoop=1;jettySize=auto;html=1;dashed=1;fontSize=12;startArrow=classic;startFill=1;endArrow=none;endFill=0;targetPerimeterSpacing=0;strokeColor=#6c8ebf;strokeWidth=2;fillColor=#dae8fc;" edge="1" parent="1" source="Tq09RANnmWX7quzsQ5gN-116" target="Tq09RANnmWX7quzsQ5gN-71">
          <mxGeometry relative="1" as="geometry">
            <mxPoint x="190" y="680" as="sourcePoint" />
            <Array as="points">
              <mxPoint x="190" y="630" />
              <mxPoint x="190" y="630" />
            </Array>
          </mxGeometry>
        </mxCell>
        <mxCell id="Tq09RANnmWX7quzsQ5gN-119" style="edgeStyle=orthogonalEdgeStyle;rounded=0;orthogonalLoop=1;jettySize=auto;html=1;dashed=1;fontSize=12;startArrow=none;startFill=0;endArrow=classic;endFill=1;targetPerimeterSpacing=0;strokeColor=#6c8ebf;strokeWidth=2;fillColor=#dae8fc;" edge="1" parent="1" source="Tq09RANnmWX7quzsQ5gN-116" target="Tq09RANnmWX7quzsQ5gN-73">
          <mxGeometry relative="1" as="geometry">
            <mxPoint x="30" y="480" as="targetPoint" />
            <Array as="points">
              <mxPoint x="100" y="400" />
            </Array>
          </mxGeometry>
        </mxCell>
        <mxCell id="Tq09RANnmWX7quzsQ5gN-116" value="&lt;font style=&quot;font-size: 12px;&quot;&gt;/target_on_image&lt;/font&gt;" style="rounded=1;whiteSpace=wrap;html=1;shadow=0;sketch=0;fontSize=20;strokeWidth=1;fillColor=#f5f5f5;strokeColor=#666666;fontColor=#333333;" vertex="1" parent="1">
          <mxGeometry x="90" y="670" width="110" height="30" as="geometry" />
        </mxCell>
        <mxCell id="Tq09RANnmWX7quzsQ5gN-117" value="&lt;span style=&quot;font-size: 12px;&quot;&gt;ROS2 Topic&lt;/span&gt;&lt;br style=&quot;font-size: 12px;&quot;&gt;&lt;b style=&quot;font-size: 12px;&quot;&gt;Point&lt;/b&gt;" style="text;html=1;align=center;verticalAlign=middle;resizable=0;points=[];autosize=1;strokeColor=none;fillColor=none;fontSize=15;" vertex="1" parent="1">
          <mxGeometry x="100" y="620" width="90" height="50" as="geometry" />
        </mxCell>
        <mxCell id="Tq09RANnmWX7quzsQ5gN-130" style="edgeStyle=orthogonalEdgeStyle;rounded=0;orthogonalLoop=1;jettySize=auto;html=1;dashed=1;fontSize=16;startArrow=classic;startFill=1;endArrow=none;endFill=0;targetPerimeterSpacing=0;strokeColor=#b85450;strokeWidth=2;shape=link;fillColor=#f8cecc;dashPattern=1 1;" edge="1" parent="1" source="Tq09RANnmWX7quzsQ5gN-129" target="Tq09RANnmWX7quzsQ5gN-91">
          <mxGeometry relative="1" as="geometry">
            <Array as="points">
              <mxPoint x="490" y="630" />
              <mxPoint x="490" y="630" />
            </Array>
          </mxGeometry>
        </mxCell>
        <mxCell id="Tq09RANnmWX7quzsQ5gN-132" style="edgeStyle=orthogonalEdgeStyle;shape=link;rounded=0;orthogonalLoop=1;jettySize=auto;html=1;exitX=0.5;exitY=1;exitDx=0;exitDy=0;dashed=1;dashPattern=1 1;fontSize=16;startArrow=classic;startFill=1;endArrow=none;endFill=0;targetPerimeterSpacing=0;strokeColor=#b85450;strokeWidth=2;fillColor=#f8cecc;" edge="1" parent="1" source="Tq09RANnmWX7quzsQ5gN-129" target="Tq09RANnmWX7quzsQ5gN-95">
          <mxGeometry relative="1" as="geometry">
            <Array as="points">
              <mxPoint x="500" y="755" />
            </Array>
          </mxGeometry>
        </mxCell>
        <mxCell id="Tq09RANnmWX7quzsQ5gN-129" value="&lt;font style=&quot;font-size: 16px;&quot;&gt;&lt;b&gt;WiFi&lt;/b&gt;&lt;/font&gt;" style="ellipse;whiteSpace=wrap;html=1;aspect=fixed;rounded=1;shadow=0;sketch=0;fontSize=11;strokeWidth=1;fillColor=#f8cecc;strokeColor=#b85450;" vertex="1" parent="1">
          <mxGeometry x="460" y="660" width="80" height="80" as="geometry" />
        </mxCell>
      </root>
    </mxGraphModel>
  </diagram>
</mxfile>
